<?xml version="1.0" encoding="UTF-8" standalone="no"?>
<svg width="81px" height="34px" viewBox="0 0 81 34" version="1.1" xmlns="http://www.w3.org/2000/svg" xmlns:xlink="http://www.w3.org/1999/xlink">
    <!-- Generator: Sketch 41 (35326) - http://www.bohemiancoding.com/sketch -->
    <title>Logo</title>
    <desc>Created with Sketch.</desc>
    <defs></defs>
    <g id="Page-1" stroke="none" stroke-width="1" fill="none" fill-rule="evenodd">
        <g id="IMDb-concept" transform="translate(-37.000000, -26.000000)" fill="#000000">
            <g id="Header" transform="translate(20.000000, 0.000000)">
                <g id="Logo" transform="translate(0.000000, 13.000000)">
                    <rect id="Rectangle-path" x="17.0945946" y="13.9736842" width="8.2750842" height="31.8143598"></rect>
                    <path d="M55.0798316,13.9736842 L55.0798316,45.788044 L47.8620737,45.788044 L47.8301204,24.3076621 L44.9514562,45.788044 L39.7873121,45.788044 L36.7767382,24.7701515 L36.7427366,45.788044 L29.527027,45.788044 L29.527027,13.9736842 L40.2330196,13.9736842 C40.5165027,15.9059077 40.8429998,18.1659665 41.2243911,20.7522236 L42.4013375,28.8302355 L44.3054262,13.9736842 L55.0798316,13.9736842 L55.0798316,13.9736842 Z" id="Shape"></path>
                    <path d="M65.7730359,19.397498 L65.7730359,40.3642302 C66.9520306,40.3642302 67.6791729,40.1252091 67.9499566,39.6438927 C68.2182823,39.1642134 68.3571563,37.8626946 68.3571563,35.7389268 L68.3571563,23.3536242 C68.3571563,21.9092657 68.3104553,20.9846962 68.2182823,20.5799156 C68.126519,20.170633 67.9216902,19.8726752 67.597651,19.6831773 C67.2764794,19.4912238 66.6685475,19.397498 65.7730359,19.397498 L65.7730359,19.397498 Z M57.5,13.9736842 L63.6792757,13.9736842 C67.6685218,13.9736842 70.3681656,14.1570428 71.7732913,14.5233508 C73.1808749,14.8917052 74.2513103,15.4949879 74.9825492,16.3299245 C75.713788,17.1714096 76.1721949,18.1021184 76.3557216,19.1335107 C76.5412965,20.1624473 76.6330598,22.1798016 76.6330598,25.1921219 L76.6330598,36.3356609 C76.6330598,39.1924539 76.4966438,41.0993018 76.2303663,42.0623439 C75.9616309,43.0249768 75.4946212,43.7784661 74.824831,44.3244492 C74.1574987,44.867158 73.3344965,45.2469723 72.3537761,45.4659385 C71.3726461,45.6808119 69.8954207,45.788044 67.9188226,45.788044 L57.5004097,45.788044 L57.5004097,13.9736842 L57.5,13.9736842 Z" id="Shape"></path>
                    <path d="M89.6493613,27.1452188 C89.6493613,25.8011345 89.5621042,24.9256789 89.3892287,24.5123034 C89.2163531,24.1009744 88.8816629,23.8942866 88.3761453,23.8942866 C87.8837369,23.8942866 87.5637942,24.0755988 87.4187754,24.4312655 C87.2717084,24.7910249 87.199199,25.6967675 87.199199,27.1452188 L87.199199,38.3505595 C87.199199,39.7478505 87.2823595,40.6409053 87.4486805,41.0325888 C87.6125435,41.426728 87.9431372,41.6186815 88.4334974,41.6186815 C88.9369666,41.6186815 89.2651024,41.4189516 89.4183144,41.0133525 C89.571936,40.6065255 89.6489516,39.6352978 89.6489516,38.0931207 L89.6489516,27.1452188 L89.6493613,27.1452188 Z M87.199199,13.9736842 L87.199199,21.5466413 C87.8579284,20.7796456 88.589577,20.2066499 89.3953735,19.8297005 C90.207315,19.4543883 91.0860306,19.2652997 92.0327494,19.2652997 C93.122029,19.2652997 94.0671092,19.4359706 94.8708575,19.7744474 C95.6725574,20.1174262 96.284586,20.5946498 96.7048947,21.2081645 C97.1247938,21.8237256 97.3787815,22.4270083 97.4656289,23.0147382 C97.5487894,23.6028774 97.5938517,24.8573287 97.5938517,26.7809572 L97.5938517,38.5167282 C97.5938517,40.4280783 97.4656289,41.8507448 97.205906,42.786365 C96.9523279,43.723213 96.3464443,44.5352298 95.4001351,45.2211875 C94.451368,45.9071453 93.3272675,46.2501241 92.0249659,46.2501241 C91.0888982,46.2501241 90.2167371,46.0454828 89.4060246,45.6362001 C88.5940832,45.2252803 87.8517836,44.6113564 87.1844513,43.7960653 L86.6703309,45.788044 L79.2567568,45.788044 L79.2567568,13.9736842 L87.199199,13.9736842 L87.199199,13.9736842 Z" id="Shape"></path>
                </g>
            </g>
        </g>
    </g>
</svg>