<?xml version="1.0" encoding="UTF-8" standalone="no"?>
<svg width="21px" height="21px" viewBox="0 0 21 21" version="1.1" xmlns="http://www.w3.org/2000/svg" xmlns:xlink="http://www.w3.org/1999/xlink">
    <!-- Generator: Sketch 41 (35326) - http://www.bohemiancoding.com/sketch -->
    <title>Search</title>
    <desc>Created with Sketch.</desc>
    <defs></defs>
    <g id="Page-1" stroke="none" stroke-width="1" fill="none" fill-rule="evenodd">
        <g id="IMDb-concept" transform="translate(-1170.000000, -30.000000)">
            <g id="Header" transform="translate(20.000000, 0.000000)">
                <g id="Search" transform="translate(1145.000000, 23.000000)">
                    <polygon id="Shape" points="0 0 32 0 32 32 0 32"></polygon>
                    <path d="M19.4538822,19.7386164 L18.5505089,19.7386164 L18.2303259,19.4298685 C19.3509663,18.1262664 20.0256375,16.4338708 20.0256375,14.5928188 C20.0256375,10.4876158 16.6980217,7.16 12.5928188,7.16 C8.48761578,7.16 5.16,10.4876158 5.16,14.5928188 C5.16,18.6980217 8.48761578,22.0256375 12.5928188,22.0256375 C14.4338708,22.0256375 16.1262664,21.3509663 17.4298685,20.2303259 L17.7386164,20.5505089 L17.7386164,21.4538822 L23.4561692,27.16 L25.16,25.4561692 L19.4538822,19.7386164 L19.4538822,19.7386164 Z M12.5928188,19.7386164 C9.74547742,19.7386164 7.44702115,17.4401601 7.44702115,14.5928188 C7.44702115,11.7454774 9.74547742,9.44702115 12.5928188,9.44702115 C15.4401601,9.44702115 17.7386164,11.7454774 17.7386164,14.5928188 C17.7386164,17.4401601 15.4401601,19.7386164 12.5928188,19.7386164 L12.5928188,19.7386164 Z" id="Shape" fill-opacity="0.400000006" fill="#000000"></path>
                </g>
            </g>
        </g>
    </g>
</svg>